<svg version="1.0" id="Layer_1" xmlns="http://www.w3.org/2000/svg" xmlns:xlink="http://www.w3.org/1999/xlink" x="0px" y="0px"
	 width="240px" height="146.52px" viewBox="0 0 240 146.52" enable-background="new 0 0 240 146.52" xml:space="preserve">
<g>
	<g id="White_Stroke">
		<polygon fill="#FFFFFF" points="0,146.52 0,0 240,0 191.42,146.52 		"/>
	</g>
	<g>
		<path fill="#0033A0" d="M172.253,93.742h-0.788v1.313h0.788c0.789,0,1.051-0.262,1.051-0.785
			C173.304,93.742,172.78,93.742,172.253,93.742z"/>
		<path fill="#0033A0" d="M85.865,78.25c0,1.049,0.787,1.838,2.1,1.572c1.838,0,3.15-1.572,3.15-3.41c-0.525,0-1.312,0-2.1,0
			C87.177,76.412,85.865,76.937,85.865,78.25z"/>
		<path fill="#0033A0" d="M87.177,95.844c-2.362,0-3.414,1.838-3.414,4.199c0,2.104,1.052,4.205,3.414,4.205
			c2.364,0,3.152-1.84,3.414-4.205C90.59,97.943,89.541,95.844,87.177,95.844z"/>
		<path fill="#0033A0" d="M138.905,70.897c-1.835,0-2.889,1.313-2.889,3.151h5.777C141.794,72.21,141.009,70.897,138.905,70.897z"/>
		<polygon fill="#0033A0" points="72.735,42.539 70.11,50.417 75.099,50.417 		"/>
		<path fill="#0033A0" d="M120.525,46.478c-1.839,0-2.625,1.312-2.889,3.15h5.78C123.416,47.79,122.623,46.478,120.525,46.478z"/>
		<path fill="#0033A0" d="M127.616,95.578c-1.839,0-2.889,1.314-2.889,3.154h5.773C130.501,96.893,129.716,95.578,127.616,95.578z"
			/>
		<path fill="#0033A0" d="M172.253,91.639c-1.838,0-3.411,1.578-3.411,3.939c0,2.365,1.573,3.938,3.411,3.678
			c1.839,0,3.412-1.313,3.412-3.678C175.665,93.217,174.092,91.639,172.253,91.639z M174.619,98.209h-1.315l-1.312-2.365h-0.527
			v2.365h-1.05v-5.516h2.104c1.308,0,2.101,0.262,2.101,1.576c0,1.047-0.527,1.574-1.315,1.574L174.619,98.209z"/>
		<path fill="#0033A0" d="M50.153,3.938V142.58h138.382L234.484,3.938H50.153z M157.811,43.326c1.576,0,2.892,0.264,4.2,0.789
			l-0.262,3.675c-1.047-0.525-1.839-0.787-3.15-0.787c-2.101,0-3.938,1.575-3.938,4.2c0,2.364,2.104,3.939,4.204,3.939
			c1.046,0,2.361-0.262,3.146-0.787v3.938c-1.309,0.525-2.885,0.787-4.2,0.787c-4.985,0-8.662-2.889-8.662-7.877
			S152.825,43.326,157.811,43.326z M130.239,43.589h4.728v2.625c0.788-1.838,2.104-3.15,4.465-3.15c0.523,0,1.312,0,1.839,0.261
			l-0.262,4.464c-0.526-0.262-1.054-0.262-1.838-0.262c-2.366,0-3.678,1.839-3.678,4.726v6.302h-5.254V43.589z M136.017,76.937
			c0.262,2.102,1.839,2.885,4.466,2.885c1.312,0,2.889-0.262,4.465-1.045v3.676c-1.576,0.785-3.677,1.047-5.516,1.047
			c-4.992,0-8.666-2.885-8.666-7.877c0-4.987,3.15-7.876,7.878-7.876c5.512,0,7.612,3.939,7.612,8.403v0.787H136.017z
			 M120.525,43.326c5.514,0,7.613,3.939,7.613,8.403v1.05h-10.152c0.369,1.877,1.879,2.627,4.375,2.627
			c1.315,0,2.893-0.263,4.466-1.05v3.675c-1.573,0.789-3.677,1.05-5.514,1.05c-4.989,0-8.666-2.889-8.666-7.877
			S116.062,43.326,120.525,43.326z M106.87,72.21c-2.1,0-3.15,1.574-3.15,4.727v6.301h-5.252V68.008h4.728v2.627
			c1.05-2.102,3.15-3.152,5.514-3.152c3.938,0,5.777,2.889,5.777,6.041v9.19h-5.252v-6.83
			C109.234,72.999,108.184,72.21,106.87,72.21z M85.077,43.589h0.263h4.726v2.625c1.05-2.1,3.152-3.15,5.514-3.15
			c2.102,0,3.939,0.787,4.728,2.889c1.313-2.102,3.15-2.889,5.252-2.889c4.2,0,5.25,2.363,5.25,6.564v8.666h-5.25v-8.141
			c0-1.575-0.525-2.889-2.102-2.889c-1.836,0-2.887,1.575-2.887,4.727v6.302h-5.252v-8.141c0-1.575-0.525-2.889-2.101-2.889
			c-1.838,0-2.888,1.575-2.888,4.727v6.302h-5.252V43.589z M69.847,38.601h6.566l7.614,19.955h-5.777l-1.575-4.2H69.06l-1.577,4.2
			h-5.514L69.847,38.601z M73.524,62.758c2.1,0,3.939,0.525,6.039,1.05l-0.525,4.2c-1.838-1.05-3.414-1.312-5.252-1.312
			c-3.675,0-6.302,2.625-6.302,6.563s2.888,6.3,6.565,6.3c1.837,0,3.414-0.521,4.989-1.045l0.525,4.199
			c-1.575,0.262-3.15,0.785-6.039,0.785c-5.252,0-11.555-2.623-11.555-10.239C61.969,66.433,66.958,62.758,73.524,62.758z
			 M68.797,108.447c-1.839,0-4.2-0.262-6.039-0.787l0.262-4.99c1.313,0.785,3.414,1.313,5.516,1.313
			c1.575,0,3.412-0.262,3.412-1.836c0-3.676-9.453-1.314-9.453-8.668c0-4.725,4.728-6.039,8.666-6.039
			c1.839,0,3.939,0.262,5.252,0.787l-0.264,4.205c-1.313-0.527-2.889-0.793-4.463-0.793c-1.314,0-3.677,0-3.677,1.84
			c0,3.152,9.455,1.053,9.455,8.404C77.463,107.133,72.999,108.447,68.797,108.447z M87.177,107.92
			c-4.989,0-8.664-2.889-8.664-7.877s3.675-7.877,8.664-7.877c4.991,0,8.666,2.889,8.666,7.877S92.166,107.92,87.177,107.92z
			 M91.379,82.976c0-0.789,0-1.576,0-2.361c-1.313,1.838-2.625,2.623-4.727,2.623c-2.889,0-5.514-1.576-5.514-4.723
			c0-4.467,4.989-4.991,7.616-4.991c0.787,0,1.836,0.261,2.361,0.261c0-2.099-1.575-2.625-3.414-2.625
			c-1.575,0-3.414,0.262-4.725,1.05v-3.414c1.838-0.789,3.938-1.05,6.039-1.05c3.677,0,7.089,1.839,7.089,6.302v5.512
			c0,1.055,0,2.367,0.264,3.416H91.379z M106.345,104.248c1.05,0,2.364-0.266,3.152-0.793v3.939
			c-1.313,0.525-2.889,0.791-4.202,0.791c-4.989,0-8.664-2.893-8.664-7.877c0-4.992,3.675-7.877,8.664-7.877
			c1.575,0,2.889,0.262,4.202,0.785l-0.264,3.676c-1.05-0.521-1.838-0.787-3.15-0.787c-2.102,0-3.938,1.576-3.938,4.203
			C102.145,102.67,104.245,104.248,106.345,104.248z M117.375,107.66h-5.252V92.693h5.252V107.66z M117.375,90.332h-5.252v-3.939
			h5.252V90.332z M116.325,75.884c0-4.987,3.675-7.876,8.665-7.876c1.572,0,2.888,0.263,4.204,0.789l-0.266,3.675
			c-1.051-0.525-1.839-0.787-3.15-0.787c-2.101,0-3.938,1.575-3.938,4.199c0,2.365,2.1,3.938,4.2,3.938
			c1.05,0,2.361-0.262,3.154-0.783v3.938c-1.316,0.523-2.893,0.785-4.204,0.785C120,83.761,116.325,80.876,116.325,75.884z
			 M135.231,101.355h-10.242c0.265,2.1,1.838,2.893,4.465,2.893c1.312,0,2.885-0.266,4.462-1.055v3.678
			c-1.577,0.789-3.677,1.049-5.516,1.049c-4.984,0-8.662-2.889-8.662-7.877s3.15-7.877,7.878-7.877c5.516,0,7.615,3.939,7.615,8.404
			V101.355z M144.421,107.92c-4.728,0-5.777-2.1-5.777-5.512v-6.037h-2.889v-3.678h2.889v-3.416l4.988-1.576v4.992h3.678v3.678
			h-3.678v5.512c0,1.838,0.523,2.627,2.101,2.627c0.523,0,1.05,0,1.577-0.262l0.262,3.412
			C146.521,107.66,145.732,107.92,144.421,107.92z M148.094,58.556h-5.25V43.589h5.25V58.556z M148.094,41.226h-5.25V37.55h5.25
			V41.226z M148.359,68.008h4.728v2.627c0.784-1.838,2.1-3.152,4.462-3.152c0.522,0,1.315,0,1.838,0.263l-0.261,4.464
			c-0.527-0.264-1.055-0.264-1.839-0.264c-2.361,0-3.678,1.838-3.678,4.729v6.301h-5.25V68.008z M160.438,106.609
			c-1.573,3.678-2.627,7.354-7.351,7.354c-1.054,0-2.101,0-3.154-0.266l0.262-3.938c0.792,0.266,1.315,0.266,2.104,0.266
			c1.312,0,2.101-0.793,2.628-2.105l-6.039-15.227h5.512l3.15,9.715l3.153-9.715h5.247L160.438,106.609z M172.519,100.57
			c-2.893,0-4.992-2.361-4.992-4.992c0-2.623,2.1-4.984,4.992-4.984c2.885,0,4.985,2.361,4.985,4.984
			C177.504,98.471,175.142,100.57,172.519,100.57z M173.826,58.556c0-0.787,0-1.575,0-2.364c-1.046,1.839-2.623,2.627-4.723,2.627
			c-2.889,0-5.516-1.575-5.516-4.728c0-4.463,4.992-4.989,7.615-4.989c0.789,0,1.839,0.264,2.362,0.264
			c0-2.102-1.573-2.627-3.412-2.627c-1.573,0-3.412,0.263-4.728,1.05v-3.414c1.839-0.787,3.938-1.05,6.039-1.05
			c3.677,0,7.093,1.839,7.093,6.303v5.514c0,1.05,0,2.364,0.262,3.414H173.826z M192.212,58.294v-7.091
			c0-2.889-1.054-3.675-2.365-3.675c-2.1,0-3.15,1.575-3.15,4.726v6.302h-5.254V43.589h4.728v2.625c1.05-2.1,3.15-3.15,5.516-3.15
			c3.938,0,5.773,2.889,5.773,6.039v9.191H192.212z"/>
		<path fill="#0033A0" d="M168.58,53.831c0,1.05,0.784,1.575,2.1,1.312c1.839,0,3.146-1.575,3.146-3.414c-0.522,0-1.308,0-2.1,0
			C169.888,51.729,168.58,52.517,168.58,53.831z"/>
	</g>
	<rect x="3.938" y="3.938" fill="#BA0C2F" width="46.478" height="138.642"/>
	<path fill="#FFFFFF" d="M32.56,96.371c1.052-0.793,2.889-1.055,3.677,0c1.05,1.045,0.787,2.885-0.263,3.672
		c-1.312,1.051-10.503,8.404-12.078,9.717c-0.525,0.527-2.627,0.527-3.414-0.527c-1.05-1.047-0.525-2.885,0.262-3.674
		C21.795,105.031,31.773,97.154,32.56,96.371"/>
	<path fill="#FFFFFF" d="M30.985,106.609c1.05-0.789,2.627-1.051,3.677,0c1.05,1.051,0.787,2.889-0.263,3.678
		c-1.313,1.311-7.877,6.299-8.928,6.822c-0.789,0.527-2.625,0.527-3.414-0.523c-0.789-1.049-0.789-2.623,0.264-3.676
		C23.371,112.387,29.935,107.395,30.985,106.609"/>
	<path fill="#FFFFFF" d="M30.198,115.537v3.938c1.836,1.313,2.1,4.201,0.261,5.514c-1.838,1.576-4.989,0.525-5.777-1.574v-3.939
		C25.996,118.949,30.198,115.537,30.198,115.537"/>
	<polygon fill="#FFFFFF" points="27.571,17.593 30.459,24.157 30.459,87.965 27.571,90.066 24.946,87.965 24.946,24.157 	"/>
	<path fill="#FFFFFF" d="M38.076,77.199h-5.777l1.838,2.889l-2.102,2.889c2.364,1.313,4.989-1.314,5.516-0.523
		c0.262,0.262,0.787,1.047,0.262,1.309L18.907,98.732c-0.788,1.049-0.788,2.361,0.262,3.414c1.05,1.047,2.364,1.047,3.414,0.262
		l19.432-15.23c1.575-1.84,1.837-3.94,1.05-6.301C42.014,78.515,40.437,77.46,38.076,77.199"/>
	<path fill="#FFFFFF" d="M17.068,77.199h6.039l-1.837,2.889l2.1,2.889c-2.363,1.313-5.252-1.049-5.777-0.523
		c-0.261,0.262-0.525,1.047-0.261,1.309l9.189,7.092l-4.2,3.15l-8.928-7.088c-1.577-1.84-1.838-3.94-1.052-6.301
		C12.866,78.515,14.705,77.46,17.068,77.199"/>
</g>
</svg>
